<?xml version="1.0" encoding="iso-8859-1"?>
<!-- Generator: Adobe Illustrator 19.0.0, SVG Export Plug-In . SVG Version: 6.00 Build 0)  -->
<svg version="1.1" id="Layer_1" xmlns="http://www.w3.org/2000/svg" xmlns:xlink="http://www.w3.org/1999/xlink" x="0px" y="0px"
	 viewBox="0 0 512 512" style="enable-background:new 0 0 512 512;" xml:space="preserve">
<path style="fill:#FDDD85;" d="M343.769,215.204V87.77C343.769,39.296,304.474,0,256,0l0,0c-48.474,0-87.77,39.296-87.77,87.77
	v127.434h36.324V85.824c0-28.413,23.033-51.445,51.445-51.445l0,0c28.413,0,51.445,23.033,51.445,51.445v129.38H343.769z"/>
<path style="fill:#F07B52;" d="M394.664,511.996H117.336c-14.293,0-25.881-11.588-25.881-25.881v-245.03
	c0-14.293,11.588-25.881,25.881-25.881h277.327c14.293,0,25.881,11.588,25.881,25.881v245.03
	C420.545,500.409,408.957,511.996,394.664,511.996z"/>
<path style="fill:#DD6140;" d="M420.543,241.087v245.03c0,14.292-11.581,25.883-25.883,25.883h-51.218
	c14.292,0,25.873-11.591,25.873-25.883v-245.03c0-14.292-11.581-25.883-25.873-25.883h51.218
	C408.962,215.204,420.543,226.795,420.543,241.087z"/>
<path style="fill:#FDDD85;" d="M231.08,410.965c-0.155,0-0.31-0.005-0.466-0.015c-2.179-0.135-4.19-1.212-5.511-2.95l-35.365-46.538
	c-2.509-3.3-1.866-8.009,1.436-10.518c3.3-2.507,8.009-1.866,10.518,1.436l30.101,39.611l79.124-80.961
	c2.897-2.965,7.65-3.019,10.615-0.122c2.965,2.897,3.019,7.651,0.122,10.615l-85.206,87.182
	C235.031,410.154,233.094,410.965,231.08,410.965z"/>
<g>
</g>
<g>
</g>
<g>
</g>
<g>
</g>
<g>
</g>
<g>
</g>
<g>
</g>
<g>
</g>
<g>
</g>
<g>
</g>
<g>
</g>
<g>
</g>
<g>
</g>
<g>
</g>
<g>
</g>
</svg>
